{"title":"Elysium.2013.CAM.XviD-FANTA","uid":8811988,"size":754856203,"categoryP":"video","categoryS":"movies","magnet":"?xt=urn:btih:33e0470698d625780e2c67c8ea4d6668932f30ee&amp;dn=Elysium.2013.CAM.XviD-FANTA&amp;tr=udp%3A%2F%2Ftracker.openbittorrent.com%3A80&amp;tr=udp%3A%2F%2Fopen.demonii.com%3A1337&amp;tr=udp%3A%2F%2Ftracker.coppersurfer.tk%3A6969&amp;tr=udp%3A%2F%2Fexodus.desync.com%3A6969","seeders":4,"leechers":0,"uploader":"xxxlavalxxx","files":-1,"time":1376439339,"description":" &lt;a href=&quot;http://www.imdb.com/title/tt1535108/&quot; rel=&quot;nofollow&quot; target=&quot;_NEW&quot;&gt;http://www.imdb.com/title/tt1535108/&lt;/a&gt;\n\n\n\n Set in the year 2154, where the very wealthy live on a man-made space station while the rest of the population resides on a ruined Earth, a man takes on a mission that could bring equality to the polarized worlds.\n\n\n\n Director:\n Neill Blomkamp\n\n Writer:\n Neill Blomkamp\n\n Stars:\n Matt Damon, Jodie Foster, Sharlto Copley\n\n Genres:\n Action | Drama | Sci-Fi | Thriller\n\n Country:\n USA\n\n Language:\n English\n\n\nFormat                                   : AVI\nFormat/Info                              : Audio Video Interleave\nFile size                                : 701 MiB\nDuration                                 : 1h 33mn\nOverall bit rate                         : 1 054 Kbps\nWriting application                      : VirtualDubMod 1.5.10.2 (build 2542/release)\nWriting library                          : VirtualDubMod build 2542/release\n\nVideo\nID                                       : 0\nFormat                                   : MPEG-4 Visual\nFormat profile                           : Advanced Simple@L5\nFormat settings, BVOP                    : 1\nFormat settings, QPel                    : No\nFormat settings, GMC                     : No warppoints\nFormat settings, Matrix                  : Default (H.263)\nMuxing mode                              : Packed bitstream\nCodec ID                                 : XVID\nCodec ID/Hint                            : XviD\nDuration                                 : 1h 33mn\nBit rate                                 : 855 Kbps\nWidth                                    : 636 pixels\nHeight                                   : 220 pixels\nDisplay aspect ratio                     : 2.891\nFrame rate                               : 25.000 fps\nColor space                              : YUV\nChroma subsampling                       : 4:2:0\nBit depth                                : 8 bits\nScan type                                : Progressive\nCompression mode                         : Lossy\nBits/(Pixel*Frame)                       : 0.244\nStream size                              : 569 MiB (81%)\nWriting library                          : XviD 64\n\nAudio\nID                                       : 1\nFormat                                   : AC-3\nFormat/Info                              : Audio Coding 3\nMode extension                           : CM (complete main)\nFormat settings, Endianness              : Big\nCodec ID                                 : 2000\nDuration                                 : 1h 32mn\nBit rate mode                            : Constant\nBit rate                                 : 192 Kbps\nChannel(s)                               : 2 channels\nChannel positions                        : Front: L R\nSampling rate                            : 48.0 KHz\nBit depth                                : 16 bits\nCompression mode                         : Lossy\nStream size                              : 128 MiB (18%)\nAlignment                                : Split accross interleaves\nInterleave, duration                     : 64 ms (1.60 video frames)\nInterleave, preload duration             : 500 ms\n\n\n &lt;a href=&quot;\nhttp://bayimg.com/oaoeHaaeF&quot; rel=&quot;nofollow&quot; target=&quot;_NEW&quot;&gt;\nhttp://bayimg.com/oaoeHaaeF&lt;/a&gt; &lt;a href=&quot;\nhttp://bayimg.com/OAoEiAaEf&quot; rel=&quot;nofollow&quot; target=&quot;_NEW&quot;&gt;\nhttp://bayimg.com/OAoEiAaEf&lt;/a&gt;\n","torrent":{"xt":"urn:btih:33e0470698d625780e2c67c8ea4d6668932f30ee","amp;dn":"Elysium.2013.CAM.XviD-FANTA","amp;tr":["udp%3A%2F%2Ftracker.openbittorrent.com%3A80","udp%3A%2F%2Fopen.demonii.com%3A1337","udp%3A%2F%2Ftracker.coppersurfer.tk%3A6969","udp%3A%2F%2Fexodus.desync.com%3A6969"],"infoHash":"33e0470698d625780e2c67c8ea4d6668932f30ee","infoHashBuffer":{"type":"Buffer","data":[51,224,71,6,152,214,37,120,14,44,103,200,234,77,102,104,147,47,48,238]},"announce":[],"urlList":[]}}